# File created by Blade
# Date/Time:  Mon Sep 22 21:09:19 2014
# Frame Rate: 120.000 fps
#------------------------------------------------------
:FULLY-SPECIFIED
:DEGREES
3273
root 6.158452 33.179720 -9.102823 46.643993 -30.589177 -26.734096
Spine -35.178546 -4.139619 23.491070
Head 6.011087 -5.913806 1.478974
LeftShoulder -0.376533 37.378356 30.046572
LeftArm 94.234111 29.458095 -37.420039
LeftForeArm -36.912194 -0.000000 67.592584
LeftHand -16.754294 0.000000 -12.439912
LeftHandThumb1 -26.253704 0.000000 33.147579
RightShoulder -13.271658 -51.896273 -13.398152
RightArm 60.749822 -15.047218 57.585339
RightForeArm 53.519516 -0.000000 84.751967
RightHand 1.152327 -0.000000 13.613223
RightHandThumb1 -24.326973 -0.000000 -32.862282
LeftUpLeg -40.378990 16.003548 6.631940
LeftLeg 20.079919 -0.000000 -0.000000
LeftFoot -10.882148 22.041214 9.132090
LeftToeBase -1.039894 -0.000000 0.000000
RightUpLeg -159.728752 -8.454481 20.295160
RightLeg 99.901943 -0.000000 -0.000000
RightFoot 40.527158 -17.314335 7.784326
RightToeBase 47.343246 -0.000000 -0.000000
3274
root 6.157761 33.150103 -9.070591 46.274162 -30.529298 -26.312496
Spine -35.131337 -4.415502 23.511514
Head 6.052415 -6.080433 1.036816
LeftShoulder -0.339120 37.425918 30.078462
LeftArm 94.052411 29.391884 -37.496785
LeftForeArm -36.724564 -0.000000 67.771154
LeftHand -16.784639 -0.000000 -12.292772
LeftHandThumb1 -26.253704 0.000000 33.147579
RightShoulder -13.062532 -51.850666 -13.600500
RightArm 60.758549 -15.107993 57.657901
RightForeArm 53.432519 -0.000000 84.739847
RightHand 1.154885 -0.000000 13.617474
RightHandThumb1 -24.326973 -0.000000 -32.862282
LeftUpLeg -40.310105 15.680386 6.428576
LeftLeg 20.272337 -0.000000 -0.000000
LeftFoot -11.005100 21.985506 9.111923
LeftToeBase -1.071057 -0.000000 0.000000
RightUpLeg -159.771785 -8.421996 20.247523
RightLeg 100.109463 -0.000000 -0.000000
RightFoot 40.539603 -17.278029 7.709428
RightToeBase 47.337510 -0.000000 -0.000000
3275
root 6.154443 33.124181 -9.047128 45.963233 -30.412873 -25.957505
Spine -35.086978 -4.654881 23.563243
Head 6.087697 -6.322562 0.676311
LeftShoulder -0.504214 37.553585 29.942913
LeftArm 94.138165 29.151046 -37.245933
LeftForeArm -36.796172 -0.000000 67.873953
LeftHand -16.706793 -0.000000 -12.355584
LeftHandThumb1 -26.253704 0.000000 33.147579
RightShoulder -12.943299 -51.883799 -13.726313
RightArm 60.854348 -15.118806 57.714554
RightForeArm 53.314597 -0.000000 84.697820
RightHand 1.149698 -0.000000 13.808763
RightHandThumb1 -24.326973 -0.000000 -32.862282
LeftUpLeg -40.300122 15.377273 6.300963
LeftLeg 20.500809 -0.000000 -0.000000
LeftFoot -11.125121 21.931803 9.104500
LeftToeBase -1.177426 -0.000000 0.000000
RightUpLeg -159.824793 -8.374034 20.274959
RightLeg 100.273714 -0.000000 -0.000000
RightFoot 40.541271 -17.272532 7.741180
RightToeBase 47.310382 -0.000000 -0.000000
3276
root 6.151787 33.103269 -9.026029 45.744432 -30.309858 -25.723892
Spine -35.040385 -4.791584 23.655599
Head 6.127895 -6.570748 0.356091
LeftShoulder -0.492754 37.604214 29.963368
LeftArm 94.077844 29.053908 -37.259178
LeftForeArm -36.904799 -0.000000 67.989289
LeftHand -16.813138 -0.000000 -12.242699
LeftHandThumb1 -26.253704 0.000000 33.147579
RightShoulder -12.827884 -51.827024 -13.842481
RightArm 60.874680 -15.161630 57.757099
RightForeArm 53.295013 -0.000000 84.676937
RightHand 0.983931 -0.000000 13.986488
RightHandThumb1 -24.326973 -0.000000 -32.862282
LeftUpLeg -40.331284 15.220280 6.196157
LeftLeg 20.740023 -0.000000 -0.000000
LeftFoot -11.259637 21.838362 9.084927
LeftToeBase -1.249975 -0.000000 0.000000
RightUpLeg -159.836398 -8.259814 20.314164
RightLeg 100.395615 -0.000000 -0.000000
RightFoot 40.570425 -17.248430 7.856153
RightToeBase 47.363205 -0.000000 -0.000000
3277
root 6.139876 33.084856 -9.006407 45.526433 -30.204031 -25.563504
Spine -34.953306 -4.927583 23.764916
Head 6.197165 -6.874946 0.103985
LeftShoulder -0.485492 37.637552 30.014780
LeftArm 93.994605 28.964233 -37.284673
LeftForeArm -36.873328 -0.000000 68.106906
LeftHand -16.859446 -0.000000 -12.210268
LeftHandThumb1 -26.253704 0.000000 33.147579
RightShoulder -12.681716 -51.808413 -13.945766
RightArm 60.919040 -15.156628 57.766400
RightForeArm 53.253914 -0.000000 84.646401
RightHand 1.136315 -0.000000 14.059160
RightHandThumb1 -24.326973 -0.000000 -32.862282
LeftUpLeg -40.307074 15.089330 6.166839
LeftLeg 20.974344 -0.000000 -0.000000
LeftFoot -11.384715 21.819717 9.130342
LeftToeBase -1.311371 -0.000000 0.000000
RightUpLeg -159.803142 -8.086885 20.375975
RightLeg 100.509935 -0.000000 -0.000000
RightFoot 40.617621 -17.232641 7.912530
RightToeBase 47.406383 -0.000000 -0.000000
3278
root 6.125837 33.068778 -8.992638 45.329529 -30.054626 -25.414868
Spine -34.884215 -5.052140 23.867423
Head 6.263094 -7.160245 -0.063179
LeftShoulder -0.436267 37.609853 30.113005
LeftArm 93.862387 28.927783 -37.373209
LeftForeArm -36.752852 -0.000000 68.214222
LeftHand -17.002273 -0.000000 -12.434142
LeftHandThumb1 -26.253704 0.000000 33.147579
RightShoulder -12.623568 -51.787217 -13.976929
RightArm 60.971951 -15.160021 57.746043
RightForeArm 53.279838 -0.000000 84.654225
RightHand 1.068398 -0.000000 14.051927
RightHandThumb1 -24.326973 -0.000000 -32.862282
LeftUpLeg -40.308912 14.910225 6.182128
LeftLeg 21.206779 -0.000000 -0.000000
LeftFoot -11.493366 21.859295 9.186705
LeftToeBase -1.257524 -0.000000 0.000000
RightUpLeg -159.791307 -7.916370 20.470693
RightLeg 100.603985 -0.000000 -0.000000
RightFoot 40.639498 -17.252756 7.938417
RightToeBase 47.413346 -0.000000 -0.000000
